# Blender v2.82 (sub 7) OBJ File: ''
# www.blender.org
mtllib boxes.mtl
o Plane
v -1.000000 0.000000 0.000000
v 1.000000 0.000000 0.000000
v 0.000000 0.000000 0.000000
v 1.000000 0.000000 -0.500000
v -1.000000 0.000000 -0.500000
v 0.000000 0.000000 -0.500000
v -0.500000 0.000000 0.000000
v -0.500000 0.000000 -0.500000
v -0.750000 0.000000 0.000000
v -0.750000 0.000000 -0.500000
v 1.000000 0.000000 -0.750000
v 0.000000 0.000000 -0.750000
v -1.000000 0.000000 -0.750000
v -0.500000 0.000000 -0.750000
v -0.750000 0.000000 -0.750000
v -0.875000 0.000000 0.000000
v -0.875000 0.000000 -0.500000
v -0.875000 0.000000 -0.750000
v 1.000000 0.000000 -0.875000
v 0.000000 0.000000 -0.875000
v -0.500000 0.000000 -0.875000
v -0.750000 0.000000 -0.875000
v -1.000000 0.000000 -0.875000
v -0.875000 0.000000 -0.875000
v -1.000000 -0.213212 1.000000
v 1.000000 -0.213212 1.000000
v -1.000000 -0.213212 -1.000000
v 1.000000 -0.213212 -1.000000
v -1.000000 -0.213212 0.000000
v 1.000000 -0.213212 0.000000
v 0.000000 -0.213212 1.000000
v 0.000000 -0.213212 -1.000000
v 0.000000 -0.213212 0.000000
v 1.000000 -0.213212 -0.500000
v -1.000000 -0.213212 -0.500000
v 0.000000 -0.213212 -0.500000
v -0.500000 -0.213212 -1.000000
v -0.500000 -0.213212 0.000000
v -0.500000 -0.213212 1.000000
v -0.500000 -0.213212 -0.500000
v -0.750000 -0.213212 -1.000000
v -0.750000 -0.213212 0.000000
v -0.750000 -0.213212 -0.500000
v -0.750000 -0.213212 1.000000
v 1.000000 -0.213212 -0.750000
v 0.000000 -0.213212 -0.750000
v -1.000000 -0.213212 -0.750000
v -0.500000 -0.213212 -0.750000
v -0.750000 -0.213212 -0.750000
v -0.875000 -0.213212 -1.000000
v -0.875000 -0.213212 0.000000
v -0.875000 -0.213212 -0.500000
v -0.875000 -0.213212 1.000000
v -0.875000 -0.213212 -0.750000
v 1.000000 -0.213212 -0.875000
v 0.000000 -0.213212 -0.875000
v -0.500000 -0.213212 -0.875000
v -0.750000 -0.213212 -0.875000
v -1.000000 -0.213212 -0.875000
v -0.875000 -0.213212 -0.875000
v 0.000000 0.583631 1.000000
v 0.000000 0.583631 -1.000000
v 0.000000 0.583631 0.000000
v 0.000000 0.583631 -0.500000
v -0.500000 0.583631 -1.000000
v -0.500000 0.583631 0.000000
v -0.500000 0.583631 1.000000
v -0.500000 0.583631 -0.500000
v -0.750000 0.583631 -1.000000
v -0.750000 0.583631 0.000000
v -0.750000 0.583631 -0.500000
v -0.750000 0.583631 1.000000
v 0.000000 0.583631 -0.750000
v -0.500000 0.583631 -0.750000
v -0.750000 0.583631 -0.750000
v -0.875000 0.583631 -1.000000
v -0.875000 0.583631 0.000000
v -0.875000 0.583631 -0.500000
v -0.875000 0.583631 1.000000
v -0.875000 0.583631 -0.750000
v 0.000000 0.583631 -0.875000
v -0.500000 0.583631 -0.875000
v -0.750000 0.583631 -0.875000
v -0.875000 0.583631 -0.875000
v 0.000000 0.370419 0.000000
v 0.000000 0.370419 -0.500000
v -0.500000 0.370419 0.000000
v -0.500000 0.370419 -0.500000
v -0.750000 0.370419 0.000000
v -0.750000 0.370419 -0.500000
v 0.000000 0.370419 -0.750000
v -0.500000 0.370419 -0.750000
v -0.750000 0.370419 -0.750000
v -0.875000 0.370419 0.000000
v -0.875000 0.370419 -0.500000
v -0.875000 0.370419 -0.750000
v 0.000000 0.370419 -0.875000
v -0.500000 0.370419 -0.875000
v -0.750000 0.370419 -0.875000
v -0.875000 0.370419 -0.875000
vt 0.500000 0.500000
vt 1.000000 0.500000
vt 1.000000 0.750000
vt 0.500000 0.750000
vt 0.125000 0.500000
vt 0.250000 0.500000
vt 0.250000 0.750000
vt 0.125000 0.750000
vt 0.000000 0.500000
vt 0.062500 0.500000
vt 0.062500 0.750000
vt 0.000000 0.750000
vt 0.000000 0.875000
vt 0.062500 0.875000
vt 0.062500 0.937500
vt 0.000000 0.937500
vt 0.125000 0.875000
vt 0.250000 0.875000
vt 0.250000 0.937500
vt 0.125000 0.937500
vt 0.500000 0.875000
vt 1.000000 0.875000
vt 1.000000 0.937500
vt 0.500000 0.937500
vt 0.500000 0.937500
vt 1.000000 0.937500
vt 1.000000 1.000000
vt 0.500000 1.000000
vt 0.500000 0.000000
vt 1.000000 0.000000
vt 1.000000 0.500000
vt 0.500000 0.500000
vt 0.125000 0.937500
vt 0.250000 0.937500
vt 0.250000 1.000000
vt 0.125000 1.000000
vt 0.125000 0.000000
vt 0.250000 0.000000
vt 0.250000 0.500000
vt 0.125000 0.500000
vt 0.125000 0.750000
vt 0.250000 0.750000
vt 0.250000 0.875000
vt 0.125000 0.875000
vt 0.500000 0.750000
vt 1.000000 0.750000
vt 1.000000 0.875000
vt 0.500000 0.875000
vt 0.000000 0.750000
vt 0.062500 0.750000
vt 0.062500 0.875000
vt 0.000000 0.875000
vt 0.000000 0.937500
vt 0.062500 0.937500
vt 0.062500 1.000000
vt 0.000000 1.000000
vt 0.000000 0.000000
vt 0.062500 0.000000
vt 0.062500 0.500000
vt 0.000000 0.500000
vt 0.250000 0.000000
vt 0.500000 0.000000
vt 0.500000 0.500000
vt 0.250000 0.500000
vt 0.250000 0.937500
vt 0.500000 0.937500
vt 0.500000 1.000000
vt 0.250000 1.000000
vt 0.062500 0.000000
vt 0.125000 0.000000
vt 0.125000 0.500000
vt 0.062500 0.500000
vt 0.062500 0.937500
vt 0.125000 0.937500
vt 0.125000 1.000000
vt 0.062500 1.000000
vt 0.062500 0.750000
vt 0.125000 0.750000
vt 0.125000 0.875000
vt 0.062500 0.875000
vt 0.250000 0.750000
vt 0.500000 0.750000
vt 0.500000 0.875000
vt 0.250000 0.875000
vt 0.250000 0.500000
vt 0.500000 0.500000
vt 0.500000 0.750000
vt 0.250000 0.750000
vt 0.062500 0.500000
vt 0.125000 0.500000
vt 0.125000 0.750000
vt 0.062500 0.750000
vt 0.062500 0.875000
vt 0.125000 0.875000
vt 0.125000 0.937500
vt 0.062500 0.937500
vt 0.250000 0.875000
vt 0.500000 0.875000
vt 0.500000 0.937500
vt 0.250000 0.937500
vn 0.0000 1.0000 0.0000
usemtl None
s off
f 3/1/1 2/2/1 4/3/1 6/4/1
f 9/5/1 7/6/1 8/7/1 10/8/1
f 1/9/1 16/10/1 17/11/1 5/12/1
f 13/13/1 18/14/1 24/15/1 23/16/1
f 15/17/1 14/18/1 21/19/1 22/20/1
f 12/21/1 11/22/1 19/23/1 20/24/1
f 56/25/1 55/26/1 28/27/1 32/28/1
f 31/29/1 26/30/1 30/31/1 33/32/1
f 58/33/1 57/34/1 37/35/1 41/36/1
f 44/37/1 39/38/1 38/39/1 42/40/1
f 43/41/1 40/42/1 48/43/1 49/44/1
f 36/45/1 34/46/1 45/47/1 46/48/1
f 35/49/1 52/50/1 54/51/1 47/52/1
f 59/53/1 60/54/1 50/55/1 27/56/1
f 25/57/1 53/58/1 51/59/1 29/60/1
f 67/61/1 61/62/1 63/63/1 66/64/1
f 82/65/1 81/66/1 62/67/1 65/68/1
f 79/69/1 72/70/1 70/71/1 77/72/1
f 84/73/1 83/74/1 69/75/1 76/76/1
f 78/77/1 71/78/1 75/79/1 80/80/1
f 68/81/1 64/82/1 73/83/1 74/84/1
f 87/85/1 85/86/1 86/87/1 88/88/1
f 94/89/1 89/90/1 90/91/1 95/92/1
f 96/93/1 93/94/1 99/95/1 100/96/1
f 92/97/1 91/98/1 97/99/1 98/100/1
